<svg width="1145" height="1181" viewBox="0 0 1145 1181" fill="none" xmlns="http://www.w3.org/2000/svg">
<path d="M219.403 411.369C174.887 665.958 61.7419 736.921 10.7338 740.579H-31V1190H1145C1130.26 1054.16 1082.5 797.5 1014.33 763.025C951.075 731.032 890 658.5 890 642C884 614.5 877.705 512.127 841.933 268.711C797.218 -35.5587 527.935 -1.64009 497.132 3.84674C472.489 8.23621 431.55 16.6493 414.161 20.3072C367.79 44.5823 263.919 156.78 219.403 411.369Z" fill="#C4C4C4"/>
<path d="M670.08 86.13C671.66 91.95 674.74 97.24 677.86 102.13C682.86 109.88 686.25 118.25 690.46 126.3C695.878 136.565 699.874 147.518 702.34 158.86C704.55 169.19 705.59 179.76 707.79 190.09C709.28 197.09 709.94 203.83 707.5 210.7C706.41 213.77 710.03 217.54 705.83 220.48C700.06 212.53 699.16 202.16 693.44 194.07C692.883 194.485 692.457 195.052 692.214 195.703C691.971 196.354 691.921 197.061 692.07 197.74C693.76 208.3 696.83 219.03 702.69 227.4C710.06 237.93 715.69 249.33 722.36 260.12C728.62 270.17 730.68 281.98 734.7 292.98C735.38 294.84 735.24 296.77 732.55 298.26C727.55 301.05 727.31 303 730.09 307.89C733.16 313.3 736.21 318.73 739.47 324.02C740.329 325.236 740.915 326.623 741.19 328.087C741.464 329.55 741.42 331.055 741.06 332.5C740.06 336.5 740.8 340.14 742.53 344.01C745.45 350.54 745.53 357.89 747.42 364.77C750.47 376 753.35 387.27 756.23 398.54C761.124 416.861 760.467 436.223 754.34 454.17C749.09 469.37 743.73 484.67 734.96 498.61C729.39 507.46 725.25 517.42 721.74 527.47C719.95 532.6 717.97 537.75 714.69 542.2C712.468 545.15 711.235 548.727 711.17 552.42C711.27 562.59 706.93 572.08 707.75 582.53C708.145 587.53 708.018 592.557 707.37 597.53C706.858 600.673 707.204 603.897 708.37 606.86C710.494 611.555 711.24 616.757 710.52 621.86C709.52 628.05 710.89 634.13 711.32 640.25C712.2 652.5 709.68 664.4 708.14 676.45C707.05 684.98 705.75 693.56 705.91 702.24C706.083 704.565 705.839 706.901 705.19 709.14C703.67 713.31 704.27 715.94 710.19 716.56C701.33 721.63 709.69 723.23 711.06 726.29C712.97 724.46 712.95 721.6 714.39 719.68C717.17 716.01 726.21 717.54 727.69 722.1C728.54 724.7 730.16 726.76 731.15 729.22C732.02 731.4 733.32 733.92 736.69 731.52C739.42 729.57 738.81 732.32 738.81 733.52C738.81 741.35 737.03 749 736.33 756.76C736.02 760.22 735.13 763.63 735.75 767.16C736.34 770.5 737.94 771.73 741.37 770.55C747.81 768.33 749.32 769.12 752.18 775.66C753.52 778.73 757.65 779.33 759.11 776.34C761.11 772.16 765.16 773.81 768.16 772.66C769.65 772.09 769.67 773.84 769.46 775.07C769.074 778.206 768.053 781.231 766.46 783.96C764.46 787.15 763.64 790.21 768.2 792.59C771.64 794.38 770.94 798.59 767.2 803.24C764.9 806.13 763.46 809.73 763.96 813.3C765.29 822.7 761.96 831.22 759.26 839.76C758.08 843.41 760.26 844.95 761.96 846.28C764.3 848.12 765.48 846.11 766.41 843.71C767.34 841.31 769.72 841.91 771.53 842.88C773.71 844.05 772.73 845.56 771.67 847.02C766.93 853.56 766.73 861.91 763.02 868.91C761.6 871.57 763.82 871.91 765.92 871.57C766.54 871.338 767.126 871.022 767.66 870.63C769.87 869.53 772.16 865.06 773.94 867.56C775.85 870.24 779.89 873.34 777.64 878C777.23 878.86 777.58 880.12 777.12 880.92C775.46 883.79 775.84 886.07 778.94 887.38C781.8 888.59 783.69 886.87 785.15 884.62C788.04 880.16 791.15 875.84 792.07 870.38C792.185 869.207 792.725 868.116 793.589 867.315C794.454 866.513 795.582 866.056 796.76 866.03C803.1 865.36 804.87 861.89 801.98 856.17C801.641 855.671 801.263 855.199 800.85 854.76C804.19 851.71 802.95 845.76 807.6 843.49C809.25 844.74 808.05 845.84 808 846.88C807.92 848.6 806.42 850.79 808.68 851.81C810.94 852.83 813.94 853.62 816.18 851.38C820.11 847.45 822.28 842.38 824.52 837.38C824.75 836.734 824.757 836.029 824.539 835.378C824.322 834.727 823.892 834.168 823.32 833.79C819.73 831.05 820.18 826.98 819.81 823.29C819.54 820.65 820.57 818.47 823.81 817.94C825.98 817.58 827.11 818.13 826.99 820.34C826.77 824.34 828.79 826.96 831.65 829.68C835.87 833.68 837.2 839.23 837.13 845.02C836.995 846.35 836.995 847.69 837.13 849.02C838.71 856.49 833.3 860.75 829.32 865.43C827.64 867.43 824.38 866.3 821.78 866.08C820.23 865.94 817.92 865.23 817.55 867.39C817.18 869.55 819.55 868.94 820.87 869.33C824.1 870.33 825.07 872.98 822.36 875.17C818.12 878.6 816.36 883.77 812.74 887.58C809.47 890.97 809.81 896.02 813.05 900.51C816.288 904.985 820.949 908.228 826.27 909.71C826.72 909.84 827.5 910.02 827.64 909.83C830.56 905.77 835.15 903.11 837.74 899.04C840.33 894.97 842.55 891.61 847.65 890.31C851.75 889.31 855.83 887.24 858.41 883.48C862.3 877.79 868.27 874.33 873.34 870.01C876.7 867.15 882.25 867.79 886.08 870.33C891.02 873.59 895.39 877.76 899.84 881.72C901.9 883.56 904.14 885.28 906.76 885.35C909.38 885.42 911.71 886.21 911.44 888.44C911.328 889.84 910.789 891.171 909.894 892.254C909 893.336 907.794 894.117 906.44 894.49C905.08 894.82 903.59 894.55 901.55 894.55C903.26 897.07 904.6 899.17 904.39 901.79C904.344 902.122 904.42 902.459 904.604 902.738C904.788 903.018 905.067 903.221 905.39 903.31C910.04 904.93 910.58 906.11 910.29 911.55C910.17 913.84 911.59 915.89 913.09 918.55C908.42 917.55 905.18 920.48 901.26 920.61C900.757 920.648 900.276 920.835 899.879 921.147C899.482 921.458 899.187 921.88 899.03 922.36C898.912 922.635 898.854 922.931 898.86 923.23C898.866 923.529 898.935 923.823 899.064 924.093C899.193 924.363 899.378 924.602 899.606 924.795C899.835 924.987 900.102 925.129 900.39 925.21C904.97 926.9 904.63 932.48 908.39 934.96C910.14 936.12 908.71 938.38 908.16 940.07C907.76 941.28 906.79 942.27 905.51 941.57C903.59 940.57 902.45 940.57 901.95 942.95C901.822 943.358 901.796 943.792 901.873 944.213C901.951 944.634 902.13 945.029 902.395 945.365C902.66 945.701 903.003 945.967 903.394 946.141C903.785 946.314 904.213 946.389 904.64 946.36C911.94 945.48 911.49 953.75 916.19 955.84C916.372 955.95 916.526 956.1 916.64 956.278C916.754 956.457 916.826 956.66 916.849 956.871C916.872 957.082 916.846 957.295 916.774 957.494C916.701 957.694 916.583 957.874 916.43 958.02C914.93 959.79 913.91 956.81 912.5 957.58C912.295 962.171 913.594 966.704 916.2 970.49C916.762 971.498 917.584 972.338 918.58 972.92C925.01 976.41 929.14 981.08 929.82 989.09C930.3 994.82 935.98 998.34 939.33 1002.84C942.88 1007.62 946.84 1012.09 950.57 1016.74C951.69 1018.14 952.45 1020.37 954.72 1019.44C956.99 1018.51 954.72 1016.44 955.28 1014.99L955.19 1015.08C958.59 1015.08 959.85 1017.88 961.53 1020.08C967.79 1028.23 973.53 1036.96 984.86 1038.9C985.61 1039.02 986.8 1039.51 986.86 1040.02C988.45 1047.36 996.41 1049.78 999.22 1056.37C1001.22 1061.11 1003.72 1060.91 1006.66 1056.81C1008.33 1054.48 1011.8 1054.65 1012.48 1057.59C1014.26 1065.27 1020.39 1068.52 1026.48 1070.96C1033.86 1073.96 1034.73 1080.6 1035.31 1086.16C1035.95 1092.34 1037.25 1098.5 1037.69 1104.74C1037.87 1107.27 1041.99 1109.36 1043.91 1111.96C1049.57 1119.6 1054.55 1127.49 1056.17 1137.28C1056.9 1141.7 1059.36 1146.14 1062.03 1149.85C1066.44 1156 1071.88 1161.4 1076.46 1167.43C1079.46 1171.35 1081.67 1175.83 1084.23 1180.05C724.403 1180.05 364.57 1180.08 4.73002 1180.15C0.980023 1180.15 0.129936 1179.3 0.139936 1175.55C0.253269 1032.05 0.283357 888.55 0.230023 745.05C8.32002 744.62 15.06 740.05 22.54 737.78C30.41 735.42 37.8199 731.27 46.3899 731.43C47.5678 731.396 48.7257 731.117 49.7897 730.611C50.8538 730.105 51.8007 729.383 52.57 728.49C55.19 725.67 57.7599 723.49 61.9999 724.49C68.6599 726.09 73.9999 721.97 79.1299 719.21C84.1299 716.54 90.1299 715.79 94.2499 711.21C96.9199 708.21 99.8699 705.56 101.49 701.86C103.34 697.6 107.91 695.74 110.16 691.73C110.95 690.32 112.34 688.98 113.28 687.43C115.28 684.14 116.36 680.1 120.51 678.56C120.668 678.5 120.812 678.407 120.933 678.289C121.053 678.17 121.148 678.027 121.21 677.87C122.81 669.69 128.37 663.68 133.32 657.67C139.47 650.2 141.56 641 145.65 632.67C148.07 627.76 151.37 622.8 151.48 616.86C151.504 616.011 151.813 615.194 152.357 614.541C152.901 613.888 153.649 613.437 154.48 613.26C154.867 613.09 155.301 613.063 155.706 613.184C156.111 613.305 156.46 613.566 156.69 613.92C157.206 614.697 157.472 615.613 157.454 616.546C157.437 617.478 157.135 618.383 156.59 619.14C153.59 622.78 153.93 626.9 154.84 631.57C157.91 626.87 161.31 622.33 163.92 617.38C165.278 614.8 167.174 612.543 169.48 610.76C175.25 606.27 175.56 598.64 180.11 593.48C185.031 587.739 188.732 581.057 190.99 573.84C192.57 569.065 195.014 564.621 198.2 560.73C200.4 557.99 198.37 554 198.13 550.59C197.68 543.92 199.74 541.22 205.3 537.27C207.52 535.7 212.51 533.27 209.36 528.39C208.48 527.03 208.92 526.24 210.36 525.81C211.36 525.51 212.87 524.59 212.53 524.12C209.43 519.91 212.65 515.47 211.79 511.29C211.48 509.76 210.79 508.19 211.89 507.05C213.311 505.54 214.396 503.746 215.073 501.786C215.751 499.826 216.005 497.745 215.82 495.68C214.82 489.42 219.02 483.94 218.06 478.91C216.87 472.73 220.06 466.83 217.5 460.81C216.5 458.4 219.35 457.91 221.04 458.21C221.16 448.72 218.04 439.7 220.26 430.44C220.72 428.54 222.14 427.83 223.69 427.15C227.27 425.57 227.69 423.61 225.01 420.53C224.33 419.775 223.895 418.831 223.765 417.824C223.635 416.816 223.814 415.793 224.28 414.89C227.39 409.89 226.28 404 228.74 398.89C231.38 393.5 230.6 387.07 233.06 381.42C235.58 375.61 235.43 368.82 239.34 363.42C239.53 363.16 239.81 362.81 239.77 362.55C238.61 354.91 244.57 349.24 245.37 342.09C245.98 336.65 248.37 331.74 250.56 326.69C253.68 319.6 255.21 311.79 256.95 304.12C258.25 298.37 258.75 292.12 262.75 287.29C264.15 285.62 262.42 284.51 262.94 283.16C265 277.77 266.6 272.16 269.22 267.05C270.517 264.396 271.523 261.61 272.22 258.74C274.37 250.66 276.65 242.63 278.91 234.58C279.28 233.27 279.59 232.01 278.48 230.51C275.67 232.25 276.48 236.51 272.88 238.17C273.81 232.22 276.76 227.1 279.72 222.96C283.72 217.41 284.52 210.85 287.89 205.32C291.66 199.14 293.5 192.17 297.62 185.91C302.62 178.27 308.24 170.72 312.16 162.29C312.605 161.037 313.358 159.916 314.35 159.03C319.72 154.97 321.41 147.96 326.6 143.76C326.86 143.55 327.27 143.25 327.25 143.03C326.63 136.53 331.54 133.36 335.25 129.33C338.11 126.19 338.67 121.1 343.51 119.53C343.812 119.379 344.072 119.155 344.267 118.88C344.463 118.604 344.587 118.285 344.63 117.95C344.39 112.07 349.15 108.68 351.72 104.33C357.566 94.4271 364.554 85.2443 372.54 76.97C378.61 70.67 384.65 64.24 390.82 58.12C398.3 50.7 406.04 42.95 417.2 40.2C424.2 38.46 430.88 35.09 437.74 32.58C452.45 27.19 467.41 23.15 483.31 25.03C490.13 25.84 496.98 26.64 503.71 27.97C506.602 28.6863 509.583 28.9794 512.56 28.84C513.378 28.6705 514.222 28.6705 515.04 28.84C523.83 32.14 530.71 26.59 538.3 24.07C546.68 21.3 555.39 23.14 563.91 23.36C579.82 23.77 595.22 27.99 610.82 30.71C614.82 31.41 618.58 32.27 621.74 34.97C622.346 35.5577 623.111 35.9541 623.94 36.11C638.75 36.93 645.7 50.22 656.85 56.84C660.213 58.9393 663.449 61.2367 666.54 63.72C671.82 67.79 673.54 74.43 677.54 79.48C679.29 81.68 678.23 84.61 674.7 84.61C673.074 84.6186 671.493 85.1478 670.19 86.12C670.13 85.94 670.08 85.76 670.03 85.59C670.03 85.67 669.94 85.8 670.03 85.84C670.034 85.9384 670.051 86.0358 670.08 86.13ZM506.08 216.04C510.08 214.89 509.3 211.59 509.35 208.72C509.48 202.1 508.9 195.37 512.35 188.82C513.309 190.534 513.691 192.512 513.44 194.46C513.27 195.46 512.97 196.67 514.11 197.08C515.25 197.49 516.23 196.24 516.99 195.53C518.32 194.29 517.66 192.41 517.84 190.8C518.68 183.22 519.06 175.62 520.22 168.04C521.11 162.2 522.99 156.39 523.16 149.91C520.16 151.34 520.16 154.13 518.61 155.54C515.25 143.91 520.42 132.14 518.61 120.24C517.969 120.433 517.373 120.753 516.857 121.181C516.342 121.608 515.918 122.135 515.61 122.73C515.07 123.67 515.17 125.12 512.89 125.35C511.55 115.45 515.55 105.89 515.1 94.72C510.55 104.04 509.61 112.72 508.38 121.42C507.68 126.32 508.38 131.72 502.26 134.28C498.44 135.87 496.95 139.09 497.12 143.54C497.58 155.71 494.94 167.87 499.26 180.03C503.37 191.6 500.98 204.62 506.16 216.13L505.92 216.23L506.08 216.04ZM681.13 244.04C681.6 244.19 682.26 244.19 682.5 244.51C690.5 255.15 696.92 266.96 706.22 276.71C711.01 281.71 715.02 287.5 719.44 292.88C720.13 293.72 720.93 295.04 722.27 294.34C723.61 293.64 723.27 292.34 722.97 291.18C722.75 290.18 722.56 288.94 721.88 288.46C718.01 285.66 716.88 280.96 713.95 277.46C710.07 272.93 706.643 268.029 703.72 262.83C697.958 252.081 692.849 240.994 688.42 229.63C681.06 211.18 675.42 192.63 677.25 172.53C677.768 166.539 677.727 160.513 677.13 154.53C677.03 153.42 677.36 151.87 675.83 151.66C673.66 151.36 674.33 153.31 674.04 154.45C671.94 162.67 672.13 171.29 669.7 179.45C669.25 181 669.42 183.27 667.07 182.78C665.07 182.37 665.89 180.34 666.07 178.95C666.58 173.83 667.31 168.72 667.64 163.58C667.77 161.52 669.38 158.12 666.64 157.58C663.9 157.04 663.14 160.58 662.3 162.9C661.1 166.17 660.16 169.55 658.99 172.84C658.59 173.96 658.63 175.44 656.74 176.31C656.98 169.72 657.56 163.49 656.4 157.31C654.4 160.07 655.4 163.79 652.2 167.12C652.61 157.31 653.79 148.37 650.97 139.54C643.37 155.21 644.85 173.06 639.12 189.97C638.726 189.269 638.391 188.537 638.12 187.78C636.02 174.85 639.77 161.58 635.93 148.78C635.93 148.63 636.02 148.44 635.99 148.29C634.58 141.81 636.56 134.94 633.59 128.62C632.91 127.17 632.51 125.62 630.59 126.02C628.96 126.32 628.7 127.82 628.72 129.17C628.86 137.85 626.4 146.33 626.81 155.04C626.81 155.96 627.47 157.35 625.24 158.04C625.84 145.93 618.46 135.96 617.3 124.41C617.18 123.26 616.75 121.88 615.14 122.41C613.68 122.85 613.91 124.21 614.14 125.36C614.33 126.17 614.82 126.91 614.95 127.72C615.64 131.94 612.82 135.58 608.66 135.39C605.72 135.26 605.56 136.95 605.96 138.84C607.69 146.92 606.73 155.1 606.96 163.24C607.09 167.52 605.42 171.06 601.96 174.8C600.84 167.34 597.96 161.22 596.22 154.75C595.96 153.75 595.53 152.68 594.3 152.88C593.07 153.08 593.06 154.4 593.25 155.31C595.07 164.12 593.92 173.03 594.19 181.89C594.49 191.89 595.97 201.67 597.29 211.52C597.66 214.3 597.57 217.35 600.62 217.96C603.67 218.57 603.62 215.13 604.67 213.3C605.39 211.99 605.57 210.18 607.48 210.3C609.64 210.48 609.78 212.55 610.02 214.09C610.35 216.22 610.1 218.43 610.39 220.57C611.39 227.57 610.47 235.17 616.68 240.31C618.15 237.31 619.61 234.19 621.28 231.16C621.82 230.16 621.77 228.1 623.76 228.72C625.12 229.14 625.68 230.54 625.99 231.85C626.9 235.73 627.57 239.68 628.67 243.5C629.07 244.91 628.95 247.37 631.14 247.31C633.33 247.25 633.76 245.1 633.78 243.19C633.934 240.02 634.748 236.917 636.17 234.08C636.72 232.88 639 229.49 640.17 233.42C642.44 241.14 650.61 244.42 653.17 251.71C653.278 251.935 653.439 252.13 653.64 252.278C653.84 252.426 654.074 252.523 654.32 252.56C658.54 252.26 663.14 254.43 666.91 251.71C671.2 248.61 671.68 244.08 670.91 238.86C670.09 233.05 670.4 227.07 670.4 221.16C670.4 220 670.49 218.16 672.31 218.16C674.13 218.16 674.25 219.79 674.22 221.16C674.15 225.533 675.447 229.819 677.93 233.42C679.98 236.625 681.117 240.327 681.22 244.13L681.13 244.04ZM459.53 773.99C454.65 773.14 451.96 777.25 448.39 779.06C443.09 781.74 437.5 783.78 432.39 786.73C431.39 787.27 429.14 787.65 430.01 789.82C431.28 792.99 429.12 797.25 433.13 799.55C433.165 799.694 433.169 799.844 433.144 799.991C433.118 800.137 433.062 800.276 432.98 800.4C432.37 800.94 430.58 799.68 430.98 801.49C431.13 802.19 432.81 802.49 433.21 803.25C434.96 806.58 436.09 810.41 440.86 810.68C441.24 810.68 441.5 811.78 441.92 812.28C446.71 817.91 450.85 824.23 458.36 826.87C459.75 827.35 461.51 828.54 460.01 830.7C459.62 831.25 459.33 832.4 460.01 832.39C464.23 832.39 463.27 838.56 467.56 838.47C467.855 838.514 468.139 838.616 468.394 838.77C468.649 838.925 468.871 839.128 469.047 839.369C469.223 839.61 469.349 839.884 469.418 840.174C469.488 840.464 469.498 840.766 469.45 841.06C467.57 846.24 471.02 847.91 474.64 849.65C474.917 849.824 475.151 850.058 475.324 850.335C475.497 850.612 475.605 850.925 475.64 851.25C475.64 858.15 481.77 861.52 484.64 866.73C486.95 870.781 488.617 875.167 489.58 879.73C490.86 886.04 488.47 893.13 493.93 898.57C495.49 900.12 494.5 901.44 492.55 901.51C489.96 901.61 489.21 903.51 490.88 904.51C497.23 908.41 500.12 917.23 509.09 917.32C510.82 917.32 511.38 919.05 512.51 919.92C516.1 922.68 520.32 924.75 524.73 922.92C527.783 921.623 531.005 920.767 534.3 920.38C541.694 919.452 548.965 917.715 555.98 915.2C562.22 913.09 567.82 909.56 574.45 908.1C577.85 907.35 580.65 903.5 585 903.43C586.44 903.43 588.75 903.94 589.33 901.9C589.83 900.11 588.09 899 586.97 897.78C575.69 885.56 564.92 872.893 554.66 859.78C549.09 852.66 544.66 845.07 543.17 835.78C540.65 820.37 536.99 805.2 528.82 791.53C527.2 788.82 525.82 786.87 522.17 786.46C517.75 785.96 513.17 785.61 508.94 784.91C501.35 783.65 493.73 783.83 486.22 782.82C477.84 781.7 468.7 782.24 462.32 774.82C461.77 774.2 460.47 774.25 459.53 773.99ZM720.53 435.69C718.7 426.82 718.89 416.28 712.67 407.27C711.45 405.49 709.44 405.27 708.31 403.44C704.31 396.88 700.08 396.14 693.66 400.55C688.476 404.174 682.855 407.127 676.93 409.34C673.15 410.74 669.32 412.23 666.19 415.34C662.7 418.77 657.84 420.61 653.54 422.7C649.44 424.7 646.91 428.22 646.82 431.11C646.51 440.2 644.58 449.56 649.38 458.41C652.84 464.79 658.63 466.26 663.75 461.14C667.855 457.033 672.513 453.519 677.59 450.7C685.49 446.27 693.12 448.55 697.11 456.7C700.68 463.96 702.22 471.7 703.11 479.57C703.27 480.9 703.24 482.28 705.11 482.47C706.52 482.62 706.98 481.81 707.7 480.73C716.56 467.43 720.01 452.64 720.56 435.7L720.53 435.69ZM607.2 507.96C611.77 509.33 616.28 507.96 617.71 503.1C618.187 501.188 619.081 499.405 620.328 497.879C621.574 496.352 623.142 495.12 624.92 494.27C627.38 493.05 627.83 490.75 626.92 489.39C624.4 485.84 623.31 481.51 619.31 478.64C615.14 475.64 609.62 472.69 608.47 467.51C606.93 460.62 601.56 460.45 596.94 458.9C591.7 457.14 586.14 458.39 580.78 458.6C578.558 458.711 576.339 458.337 574.277 457.503C572.215 456.668 570.359 455.395 568.84 453.77C563.59 447.98 557.6 442.93 552.66 436.87C551.84 435.87 550.98 436.43 550.09 437.07C546.48 439.68 544.14 445.9 546.19 449.79C548.24 453.68 549.09 457.52 550.31 461.52C552.077 467.52 553.273 473.674 553.88 479.9C554.68 487.25 559.22 492.31 566.39 494.08C574.897 496.198 583.08 499.451 590.72 503.75C595.79 506.58 600.94 508.45 607.23 507.96H607.2ZM593.42 428.25C593.86 424 592.8 420.1 591.42 416.08C589.85 411.38 586.98 407.33 586.14 402.19C584.639 393.523 581.335 385.268 576.44 377.96C571.09 369.82 565.26 362.01 562.13 352.62C561.19 349.81 553.35 344.96 550.46 345.39C549.54 345.53 547.96 346.22 547.95 346.7C547.8 350.98 543.61 354.9 546.39 359.29C547.83 361.56 547.46 363.51 547.22 365.86C546.53 372.75 545.33 379.76 546.04 386.55C546.71 392.89 550.3 398.66 550.33 405.55C550.33 411.87 552.07 418.24 553.94 424.4C554.176 425.382 554.284 426.39 554.26 427.4C554.26 428.65 553.33 430.22 554.93 430.98C556.53 431.74 557.65 430.3 558.62 429.19C561.23 426.19 564.16 424.04 568.44 424.19C576 424.55 585.44 434.78 585.09 442.35C585.03 443.76 584.22 445.74 585.9 446.41C587.75 447.14 588.9 445.26 589.82 443.99C593.42 439.3 593.1 433.7 593.42 428.25ZM585.51 229.8C589.72 206.52 588.83 183.46 584.19 159.44C578.64 166.15 579.96 221.13 585.51 229.8ZM542.17 125.93C538.96 130.93 536.7 198 539.17 204.82C540.33 202.36 543.29 200.64 543.4 199.03C543.82 192.91 545.83 186.77 545.29 180.84C544.42 171.43 542.92 162.03 543.34 152.6C543.77 143.86 541.14 135.44 542.17 125.93ZM361.33 464.55C361.717 463.883 361.96 463.143 362.043 462.376C362.126 461.609 362.046 460.834 361.81 460.1C359.008 449.924 357.156 439.509 356.28 428.99C355.47 420.36 352.86 412.11 351.54 403.61C351.527 403.23 351.434 402.858 351.267 402.516C351.101 402.175 350.864 401.872 350.572 401.629C350.28 401.385 349.941 401.206 349.575 401.103C349.209 401 348.826 400.975 348.45 401.03C346.16 401.21 346.53 402.71 346.68 404.29C347.1 408.59 346.98 412.91 347.68 417.22C349.465 429.287 352.139 441.207 355.68 452.88C356.84 456.88 357.48 461.31 361.33 464.55ZM547.94 200.62C549.54 199.38 550.87 198.08 551.04 196.21C551.61 189.68 553.56 183.28 552.7 176.59C552.347 173.959 552.384 171.29 552.81 168.67C553.31 165.67 552.4 163.09 549.81 162.67C546.86 162.22 547.28 165.54 546.98 167.45C545.31 178.5 547.52 189.46 547.94 200.62ZM347.94 376.17C351.49 360.43 354.88 344.68 355.72 328.56C348.74 343.75 348.42 359.99 347.95 376.17H347.94Z" fill="#232323"/>
<path d="M1116.09 1180.09C1112.94 1172.94 1114.09 1165.45 1114.52 1158.09C1114.71 1156.46 1114.66 1154.8 1114.38 1153.18C1113.44 1149.18 1112.38 1145.29 1112.59 1141.01C1112.75 1137.68 1111.09 1134.77 1108.59 1131.9C1104.85 1127.63 1102.82 1121.96 1100.08 1116.9C1093.61 1104.9 1083.15 1096.73 1073.52 1087.72C1071.47 1085.79 1069.34 1084.51 1070.99 1080.72C1072.3 1077.72 1068.77 1076.5 1066.36 1075.42C1059.91 1072.56 1053.26 1070.08 1047.11 1066.69C1044.45 1065.22 1042.96 1062.14 1039.38 1061.17C1037.64 1060.7 1036.49 1056.37 1039.24 1054.86C1042.24 1053.19 1045.16 1051.09 1049.78 1053.63C1054.99 1056.56 1059.78 1060.18 1064.04 1064.37C1067.97 1068.1 1074.63 1069.05 1080.2 1070.89C1082.61 1071.55 1084.77 1072.92 1086.4 1074.82C1087.31 1076 1088.44 1076.99 1089.74 1077.73C1091.03 1078.47 1092.46 1078.95 1093.94 1079.13C1098.79 1079.85 1107.94 1090.45 1109.58 1094.92C1110.36 1097.02 1111.12 1100.11 1113.68 1101.31C1121.24 1104.88 1123.83 1112.07 1125.41 1119.13C1127.46 1128.27 1131 1136.93 1132.96 1146.05C1133.34 1148.36 1133.5 1150.71 1133.42 1153.05C1133.42 1155.91 1133.42 1158.75 1135.75 1160.94C1136.2 1161.32 1136.53 1161.84 1136.67 1162.41C1136.82 1162.99 1136.78 1163.6 1136.57 1164.15C1134.32 1169.78 1136.71 1174.93 1138.1 1180.15L1116.09 1180.09Z" fill="#241C1A"/>
<path d="M1112.09 1081.04C1108.65 1081.1 1105.49 1080.51 1103.3 1077.46C1103.02 1077.07 1102.61 1076.57 1102.19 1076.46C1095.83 1075.46 1091.98 1070.46 1087.74 1066.52C1084.9 1063.89 1081.74 1064.1 1078.81 1062.91C1068.22 1058.63 1058.69 1052.21 1049.81 1045.44C1043.26 1040.44 1040.3 1031.78 1037.54 1023.62C1035.42 1017.33 1033.41 1011.02 1029.61 1005.19C1025.03 998.19 1020.54 990.35 1018.98 982.31C1017.18 972.97 1015.03 963.08 1017.98 953.31C1018.46 951.68 1017.82 950.42 1017.23 949.03C1015.72 945.51 1014.42 941.97 1014.66 937.97C1014.94 933.25 1015.4 932.89 1020.55 935.34C1017.95 930.93 1015.87 927 1012.55 923.75C1008.9 920.16 1005.34 916.43 1003.85 911.26C1002.85 907.84 999.25 906.67 997.35 903.89C988.94 891.61 981.62 878.14 969.35 869.29C961.96 863.96 957.02 855.86 948.48 852.04C945.41 850.66 944.79 847.49 944.26 844.5C943.79 841.82 943.83 842.01 946.64 842.12C948.83 842.21 949.16 839.51 950.87 838.58C951.99 837.97 951.96 836.58 951.09 835.51C950.09 834.22 949.21 832.28 947.87 831.8C939.25 828.71 936.57 820.45 932.04 813.9C926.49 805.9 921.21 797.71 914.04 791.04C910.23 787.48 908.21 782.57 904.21 779.17C902.39 777.61 904.98 776.02 905.81 775.91C911.34 775.15 914.91 769.1 921.42 770.6C923.7 771.12 926.42 768.26 926.02 765.88C925.25 761.64 928.28 759.99 930.6 759.31C936.53 757.57 940.9 753.47 945.42 749.96C948.92 747.25 953.35 745.06 955.42 740.44C956.42 738.25 958.49 739.37 960.25 740.04C965.8 742.15 970.38 745.85 974.47 749.85C981.8 757 989.98 763.27 996.54 771.19C1005.54 782.06 1015.06 792.77 1021.54 805.19C1025.98 813.74 1031.54 821.53 1035.88 830.01C1041.41 840.76 1047.32 851.32 1052.31 862.4C1054.58 867.4 1057.6 872.6 1058.86 877.76C1060.41 884.08 1063.78 889.76 1064.35 896.45C1064.92 903.14 1067.35 909.17 1070.02 915.32C1073.29 922.83 1074.97 931.02 1077.58 938.84C1079.36 943.666 1081.51 948.346 1084.01 952.84C1088.43 961.35 1091.48 970.44 1096.11 978.84C1096.79 979.987 1097.07 981.327 1096.91 982.65C1094.97 991.73 1096.84 1000.94 1095.82 1010.13C1095.13 1016.3 1097.82 1022.78 1098.45 1029.18C1099.51 1039.45 1103.35 1048.81 1107.18 1058.18C1107.42 1058.97 1107.6 1059.79 1107.71 1060.61C1105.71 1061.61 1105.1 1059.45 1103.71 1059.15C1102.16 1058.81 1100.77 1058.52 1099.71 1060.15C1099.48 1060.46 1099.32 1060.81 1099.24 1061.18C1099.16 1061.56 1099.17 1061.95 1099.26 1062.32C1099.35 1062.69 1099.52 1063.04 1099.76 1063.33C1100 1063.63 1100.31 1063.87 1100.65 1064.04C1107.17 1067.92 1109.37 1074.59 1111.99 1081.04H1112.09Z" fill="#241C1A"/>
<path d="M1057.47 1085.42C1061.57 1087.98 1064.99 1090.35 1068.9 1092.11C1073.65 1094.26 1078.32 1097.22 1077.11 1104.11C1076.77 1106.04 1078.55 1107.7 1080.11 1109.05C1084.37 1112.81 1088.63 1116.63 1091.61 1121.52C1094.14 1125.65 1097.68 1130.35 1097.91 1134.42C1098.35 1142.14 1103.66 1149 1101.12 1158.1C1097.73 1151.91 1092.67 1148.1 1088.93 1143.21C1083.84 1136.61 1077.27 1131.47 1072.28 1124.79C1069.35 1120.86 1067.37 1116.14 1063.09 1113.19C1062.46 1112.76 1061.99 1112.13 1061.77 1111.41C1061.54 1110.68 1061.57 1109.9 1061.84 1109.19C1062.46 1107.86 1063.84 1108.43 1064.95 1108.7C1067.03 1109.18 1067.31 1108.05 1066.8 1106.46C1066.29 1104.87 1066.22 1103.18 1064.98 1101.88C1064.31 1101.17 1063.3 1099.8 1063.98 1099.31C1069.75 1094.91 1063.55 1094.89 1061.85 1093.24C1059.76 1091.19 1056.64 1089.87 1057.47 1085.42Z" fill="#241C1A"/>
<path d="M888.21 843.45C890.76 845.6 895.07 843.98 897.29 847.45C897.822 848.21 898.573 848.789 899.444 849.109C900.315 849.429 901.263 849.475 902.16 849.24C910.16 847.47 916.9 849.73 923.37 854.24C926.134 856.063 929.118 857.528 932.25 858.6C934.79 859.55 935.59 861.74 936.74 863.67C937.226 864.362 937.466 865.197 937.422 866.041C937.379 866.886 937.054 867.691 936.5 868.33C935.25 869.64 933.82 868.73 932.39 868.17C924.88 865.17 917.59 861.52 909.28 860.98C906.69 860.82 904.18 859.12 902.17 857.87C896.81 854.53 889.69 855.5 885.17 850.51C885.048 850.4 884.918 850.299 884.78 850.21C883.56 849.16 880.42 852.35 880.73 848.9C880.764 848.186 880.947 847.487 881.269 846.849C881.59 846.211 882.043 845.647 882.596 845.195C883.15 844.744 883.793 844.413 884.483 844.226C885.172 844.039 885.894 844 886.6 844.11C887.02 844.22 887.49 843.79 888.21 843.45Z" fill="#241C1A"/>
<path d="M746.34 534.07C746.95 528.34 747.14 522.83 750.64 518.33C754.4 513.49 754.59 507.46 756.22 501.99C757.67 497.13 762.63 494.16 762.54 488.73C762.54 488.52 763.35 488.04 763.66 488.12C764.23 488.268 764.735 488.6 765.097 489.065C765.459 489.53 765.657 490.101 765.66 490.69C765.66 493.5 765.25 496.3 765.08 499.11C764.49 508.73 760.02 517.02 755.91 525.41C754.05 529.29 751.36 532.6 746.34 534.07Z" fill="#241C1A"/>
<path d="M923.58 969.49C923.58 970.39 922.91 971.1 922.41 970.75C920.57 969.46 917.41 969.75 917.15 966.5C917.09 965.63 917.53 964.55 918.39 964.82C919.523 965.213 920.565 965.829 921.456 966.631C922.348 967.433 923.07 968.405 923.58 969.49V969.49Z" fill="#241C1A"/>
<path d="M955.13 1015.05C954.47 1015.05 953.81 1015.05 953.69 1014.21C953.69 1014.06 954.07 1013.66 954.23 1013.69C955.04 1013.83 955.11 1014.47 955.04 1015.14L955.13 1015.05Z" fill="#241C1A"/>
<path d="M459.53 773.99C460.47 774.25 461.77 774.2 462.3 774.81C468.68 782.27 477.82 781.73 486.2 782.81C493.71 783.81 501.33 783.64 508.92 784.9C513.18 785.6 517.73 785.9 522.15 786.45C525.76 786.86 527.15 788.81 528.8 791.52C536.97 805.19 540.63 820.36 543.15 835.77C544.67 845.09 549.07 852.68 554.64 859.77C564.893 872.87 575.663 885.537 586.95 897.77C588.07 898.99 589.81 900.1 589.31 901.89C588.73 903.89 586.42 903.39 584.98 903.42C580.63 903.49 577.83 907.34 574.43 908.09C567.8 909.55 562.2 913.09 555.96 915.19C548.945 917.705 541.675 919.442 534.28 920.37C530.985 920.757 527.763 921.613 524.71 922.91C520.3 924.72 516.08 922.65 512.49 919.91C511.36 919.04 510.8 917.33 509.07 917.31C500.07 917.22 497.21 908.4 490.86 904.5C489.19 903.5 489.94 901.58 492.53 901.5C494.48 901.43 495.47 900.11 493.91 898.56C488.45 893.12 490.84 886.03 489.56 879.72C488.597 875.157 486.93 870.771 484.62 866.72C481.71 861.51 475.53 858.14 475.62 851.24C475.585 850.915 475.477 850.602 475.304 850.325C475.131 850.048 474.897 849.814 474.62 849.64C471 847.9 467.55 846.23 469.43 841.05C469.478 840.756 469.468 840.454 469.398 840.164C469.329 839.874 469.203 839.6 469.027 839.359C468.851 839.118 468.629 838.915 468.374 838.76C468.119 838.606 467.835 838.504 467.54 838.46C463.25 838.55 464.21 832.34 459.99 832.38C459.35 832.38 459.64 831.24 459.99 830.69C461.49 828.53 459.73 827.34 458.34 826.86C450.83 824.22 446.69 817.86 441.9 812.27C441.48 811.77 441.22 810.69 440.84 810.67C436.07 810.4 434.94 806.57 433.19 803.24C432.79 802.46 431.11 802.18 430.96 801.48C430.59 799.67 432.38 800.93 432.96 800.39C433.042 800.266 433.098 800.127 433.124 799.981C433.149 799.834 433.145 799.684 433.11 799.54C429.11 797.24 431.26 792.98 429.99 789.81C429.12 787.7 431.42 787.27 432.42 786.7C437.55 783.75 443.14 781.7 448.42 779.03C451.96 777.25 454.65 773.14 459.53 773.99Z" fill="#B8B8B5"/>
<path d="M681.22 244.13C681.118 240.312 679.974 236.594 677.91 233.38C675.427 229.779 674.13 225.493 674.2 221.12C674.2 219.76 674.01 218.12 672.29 218.12C670.57 218.12 670.38 219.94 670.38 221.12C670.38 227.03 670.07 233.01 670.89 238.82C671.63 244.04 671.15 248.57 666.89 251.67C663.12 254.39 658.52 252.22 654.3 252.52C654.051 252.49 653.814 252.4 653.608 252.257C653.402 252.114 653.235 251.923 653.12 251.7C650.56 244.38 642.39 241.13 640.12 233.41C638.97 229.48 636.69 232.87 636.12 234.07C634.698 236.907 633.884 240.01 633.73 243.18C633.73 245.09 633.42 247.24 631.09 247.3C628.76 247.36 629.02 244.9 628.62 243.49C627.54 239.63 626.87 235.7 625.96 231.8C625.65 230.49 625.09 229.09 623.73 228.67C621.73 228.05 621.79 230.12 621.25 231.11C619.58 234.11 618.12 237.29 616.65 240.26C610.44 235.12 611.32 227.52 610.36 220.52C610.07 218.38 610.36 216.17 609.99 214.04C609.75 212.5 609.61 210.43 607.45 210.25C605.54 210.09 605.36 211.9 604.64 213.25C603.64 215.08 603.5 218.48 600.59 217.91C597.68 217.34 597.59 214.25 597.26 211.47C595.94 201.62 594.46 191.81 594.16 181.84C593.89 172.98 595.04 164.07 593.22 155.26C593.03 154.35 592.94 153.06 594.27 152.83C595.6 152.6 595.93 153.73 596.19 154.7C597.93 161.17 600.81 167.29 601.93 174.75C605.43 171.01 607.1 167.47 606.93 163.19C606.67 155.05 607.63 146.87 605.93 138.79C605.53 136.9 605.69 135.21 608.63 135.34C612.79 135.53 615.63 131.89 614.92 127.67C614.79 126.86 614.3 126.12 614.11 125.31C613.85 124.16 613.62 122.8 615.11 122.36C616.72 121.88 617.11 123.26 617.27 124.36C618.43 135.91 625.81 145.88 625.21 157.99C627.44 157.34 626.82 155.99 626.78 154.99C626.37 146.28 628.78 137.8 628.69 129.12C628.69 127.77 628.93 126.27 630.56 125.97C632.48 125.61 632.88 127.12 633.56 128.57C636.56 134.89 634.56 141.76 635.96 148.24C635.96 148.39 635.86 148.58 635.9 148.73C639.74 161.57 635.99 174.84 638.09 187.73C638.361 188.487 638.696 189.219 639.09 189.92C644.82 173.01 643.34 155.16 650.94 139.49C653.76 148.32 652.58 157.26 652.17 167.07C655.35 163.74 654.38 160.07 656.37 157.26C657.53 163.45 656.95 169.68 656.71 176.26C658.6 175.39 658.56 173.91 658.96 172.79C660.13 169.5 661.07 166.12 662.27 162.85C663.11 160.56 663.87 156.98 666.61 157.53C669.35 158.08 667.71 161.47 667.61 163.53C667.28 168.67 666.55 173.78 666.04 178.9C665.9 180.29 665.11 182.32 667.04 182.73C669.39 183.22 669.22 180.95 669.67 179.4C672.1 171.23 671.91 162.61 674.01 154.4C674.3 153.26 673.63 151.31 675.8 151.61C677.33 151.82 677 153.37 677.1 154.48C677.697 160.463 677.738 166.489 677.22 172.48C675.42 192.64 681.03 211.18 688.42 229.63C692.863 241.015 697.989 252.122 703.77 262.89C706.693 268.089 710.12 272.99 714 277.52C716.93 281 718.06 285.7 721.93 288.52C722.61 289 722.8 290.29 723.02 291.24C723.29 292.37 723.53 293.76 722.32 294.4C721.11 295.04 720.18 293.78 719.49 292.94C715.07 287.56 711.06 281.79 706.27 276.77C696.97 267.02 690.58 255.21 682.55 244.57C682.31 244.25 681.65 244.25 681.18 244.1L681.22 244.13ZM626.13 162.28V161.92L625.8 162.02L626.13 162.28ZM653.42 170.22C653.287 170.02 653.14 169.829 652.98 169.65C652.98 169.65 652.76 169.79 652.65 169.87C652.79 170.06 652.93 170.26 653.09 170.44C653.207 170.378 653.318 170.304 653.42 170.22V170.22ZM603.2 180.7V180.33L602.82 180.49L603.2 180.7Z" fill="#B8B8B5"/>
<path d="M720.56 435.7C720.01 452.65 716.56 467.44 707.73 480.7C707.01 481.78 706.55 482.59 705.14 482.44C703.27 482.25 703.3 480.87 703.14 479.54C702.22 471.63 700.68 463.93 697.14 456.67C693.14 448.55 685.52 446.27 677.62 450.67C672.556 453.482 667.908 456.986 663.81 461.08C658.69 466.2 652.9 464.73 649.44 458.35C644.64 449.5 646.57 440.14 646.88 431.05C646.97 428.16 649.5 424.64 653.6 422.64C657.9 420.55 662.76 418.71 666.25 415.28C669.38 412.2 673.25 410.71 676.99 409.28C682.915 407.067 688.536 404.114 693.72 400.49C700.14 396.08 704.33 396.82 708.37 403.38C709.5 405.22 711.51 405.38 712.73 407.21C718.92 416.28 718.73 426.82 720.56 435.7Z" fill="#B8B8B5"/>
<path d="M607.23 507.96C600.94 508.45 595.79 506.58 590.7 503.75C583.076 499.455 574.91 496.202 566.42 494.08C559.25 492.31 554.71 487.25 553.91 479.9C553.303 473.674 552.107 467.52 550.34 461.52C549.12 457.52 548.22 453.59 546.22 449.79C544.22 445.99 546.51 439.68 550.12 437.07C551.01 436.43 551.87 435.86 552.69 436.87C557.63 442.93 563.62 447.98 568.87 453.77C570.389 455.395 572.245 456.668 574.307 457.503C576.369 458.337 578.588 458.711 580.81 458.6C586.17 458.39 591.73 457.14 596.97 458.9C601.59 460.45 606.97 460.62 608.5 467.51C609.65 472.69 615.17 475.66 619.34 478.64C623.34 481.51 624.43 485.84 626.95 489.39C627.95 490.75 627.46 493.05 624.95 494.27C623.172 495.12 621.604 496.352 620.358 497.879C619.111 499.405 618.217 501.188 617.74 503.1C616.31 507.92 611.8 509.33 607.23 507.96Z" fill="#B8B8B5"/>
<path d="M593.42 428.25C593.08 433.68 593.42 439.25 589.86 443.98C588.86 445.25 587.79 447.13 585.94 446.4C584.26 445.73 585.07 443.75 585.13 442.34C585.47 434.77 576.04 424.54 568.48 424.18C564.2 423.98 561.27 426.18 558.66 429.18C557.66 430.29 556.66 431.8 554.97 430.97C553.28 430.14 554.34 428.64 554.3 427.39C554.324 426.38 554.216 425.372 553.98 424.39C552.11 418.23 550.39 411.86 550.37 405.54C550.37 398.67 546.75 392.9 546.08 386.54C545.37 379.75 546.57 372.74 547.26 365.85C547.5 363.5 547.87 361.55 546.43 359.28C543.65 354.89 547.84 350.97 547.99 346.69C547.99 346.21 549.58 345.52 550.5 345.38C553.39 344.95 561.23 349.8 562.17 352.61C565.3 362 571.17 369.81 576.48 377.95C581.375 385.258 584.679 393.513 586.18 402.18C587.02 407.32 589.89 411.37 591.46 416.07C592.82 420.1 593.88 424 593.42 428.25Z" fill="#B8B8B5"/>
<path d="M506.2 216.13C501.01 204.62 503.4 191.6 499.29 180.03C494.97 167.87 497.61 155.71 497.15 143.54C496.98 139.09 498.47 135.87 502.29 134.28C508.43 131.72 507.71 126.28 508.41 121.42C509.64 112.76 510.58 104.04 515.13 94.72C515.58 105.89 511.58 115.45 512.92 125.35C515.2 125.12 515.1 123.67 515.64 122.73C515.948 122.135 516.372 121.608 516.887 121.181C517.403 120.753 517.999 120.433 518.64 120.24C520.43 132.14 515.26 143.91 518.64 155.54C520.14 154.13 520.17 151.34 523.19 149.91C523.02 156.39 521.19 162.2 520.25 168.04C519.09 175.62 518.71 183.22 517.87 190.8C517.69 192.41 518.35 194.29 517.02 195.53C516.26 196.24 515.4 197.53 514.14 197.08C512.88 196.63 513.3 195.43 513.47 194.46C513.734 192.516 513.366 190.539 512.42 188.82C508.96 195.37 509.54 202.1 509.42 208.72C509.37 211.59 510.13 214.89 506.15 216.04L506.2 216.13Z" fill="#B8B8B5"/>
<path d="M585.51 229.8C579.96 221.13 578.64 166.15 584.19 159.44C588.83 183.46 589.72 206.52 585.51 229.8Z" fill="#B8B8B5"/>
<path d="M542.17 125.93C541.17 135.44 543.77 143.86 543.37 152.6C542.95 162.03 544.45 171.43 545.32 180.84C545.86 186.77 543.85 192.91 543.43 199.03C543.32 200.64 540.36 202.36 539.2 204.82C536.7 198 538.96 130.92 542.17 125.93Z" fill="#B8B8B5"/>
<path d="M361.33 464.55C357.48 461.31 356.84 456.88 355.63 452.88C352.089 441.206 349.415 429.287 347.63 417.22C346.98 412.91 347.1 408.59 346.63 404.29C346.48 402.71 346.11 401.21 348.4 401.03C348.776 400.975 349.159 401 349.525 401.103C349.891 401.206 350.23 401.385 350.522 401.629C350.814 401.872 351.051 402.175 351.217 402.516C351.384 402.858 351.477 403.23 351.49 403.61C352.81 412.11 355.42 420.36 356.23 428.99C357.106 439.509 358.958 449.924 361.76 460.1C362.004 460.831 362.092 461.604 362.018 462.371C361.943 463.137 361.709 463.88 361.33 464.55V464.55Z" fill="#B8B8B5"/>
<path d="M547.94 200.62C547.52 189.46 545.31 178.5 547.01 167.47C547.31 165.56 546.89 162.24 549.84 162.69C552.4 163.09 553.31 165.69 552.84 168.69C552.414 171.31 552.377 173.979 552.73 176.61C553.59 183.3 551.64 189.7 551.07 196.23C550.87 198.08 549.54 199.38 547.94 200.62Z" fill="#B8B8B5"/>
<path d="M347.95 376.17C348.45 359.99 348.74 343.75 355.73 328.56C354.89 344.7 351.5 360.43 347.95 376.17Z" fill="#B8B8B5"/>
<path d="M670.08 86.13C669.967 86.08 669.862 86.0125 669.77 85.93C669.77 85.93 669.77 85.76 669.77 85.68C669.82 85.85 669.87 86.03 669.93 86.21L670.08 86.13Z" fill="#B8B8B5"/>
<path d="M1045.66 1176.38H157.659C155.139 1172.38 155.289 1168.05 155.519 1163.55C155.809 1157.88 157.139 1152.12 154.269 1146.55C153.83 1145.62 153.766 1144.56 154.09 1143.58C154.414 1142.61 155.101 1141.79 156.009 1141.31C158.449 1140.09 158.219 1138.03 158.259 1135.77C163.509 1137.92 160.629 1143.61 163.799 1146.66C164.869 1145.14 164.579 1143.66 164.389 1142.25C163.899 1138.64 163.279 1135.04 162.759 1131.43C162.139 1127.09 163.479 1126.43 167.599 1127.32C178.219 1129.74 187.869 1136.57 199.529 1134.32C201.149 1134.02 203.279 1134.32 203.969 1135.91C204.839 1137.91 202.809 1138.67 201.349 1139.44C200.579 1139.85 199.779 1140.36 200.349 1141.32C200.919 1142.28 201.769 1142 202.569 1141.67C204.191 1140.83 206.002 1140.42 207.829 1140.47C214.899 1141.12 221.979 1141.47 229.029 1140.12C236.079 1138.77 244.029 1139.88 249.799 1133.58C252.099 1131.05 255.159 1128.94 257.359 1126.49C261.729 1121.62 268.909 1118.49 268.969 1110.36C268.969 1109.36 270.179 1108.45 270.889 1107.54C275.299 1101.94 275.089 1095.54 274.239 1088.98C274.216 1088.31 273.985 1087.66 273.579 1087.12C273.172 1086.58 272.61 1086.19 271.969 1085.98C270.599 1085.67 269.849 1086.75 269.239 1087.75C265.789 1093.5 262.919 1099.47 257.429 1103.98C253.739 1106.98 250.699 1109.82 245.619 1108.72C244.805 1108.61 243.978 1108.76 243.259 1109.16C236.809 1112.47 230.409 1110.96 226.319 1105.16C225.682 1104.41 224.96 1103.74 224.169 1103.16C219.629 1099.06 214.371 1095.83 208.659 1093.64C201.959 1091.06 197.409 1084.96 191.279 1081.23C188.279 1079.4 185.829 1076.58 183.169 1074.23C182.75 1073.95 182.424 1073.55 182.232 1073.08C182.039 1072.62 181.99 1072.11 182.089 1071.61C182.289 1070.85 183.169 1070.33 183.569 1070.61C186.799 1072.96 191.069 1070.72 193.939 1072.5C200.209 1076.39 207.519 1078.08 213.529 1082.15C217.609 1084.91 222.219 1085.33 226.529 1087.03C228.149 1087.68 229.449 1086.91 230.159 1085.29C230.869 1083.67 230.399 1082.16 228.799 1081.56C226.52 1080.6 224.585 1078.98 223.249 1076.9C222.659 1076.11 220.619 1076.17 221.559 1074.51C222.379 1073.05 223.989 1073.28 225.079 1074.1C229.249 1077.26 235.609 1074.6 239.079 1079.44C239.285 1079.54 239.513 1079.59 239.742 1079.58C239.971 1079.57 240.193 1079.5 240.389 1079.38C243.229 1075.78 248.889 1074.18 249.389 1069.14C249.848 1065.23 251.078 1061.46 253.009 1058.03C254.009 1056.13 255.109 1054.23 254.179 1051.87C253.639 1050.51 254.499 1049.67 255.779 1049.29C256.849 1048.97 257.989 1048.05 259.009 1049.17C259.829 1050.08 259.199 1051.04 258.669 1051.9C257.309 1054.1 258.819 1055.69 259.889 1057.32C260.013 1057.54 260.181 1057.74 260.383 1057.89C260.585 1058.05 260.816 1058.16 261.063 1058.23C261.31 1058.29 261.567 1058.3 261.819 1058.26C262.071 1058.23 262.313 1058.14 262.529 1058C264.359 1056.74 264.529 1054.79 264.399 1052.69C263.749 1044.26 263.599 1035.87 265.619 1027.53C266.231 1024.77 266.51 1021.95 266.449 1019.13C266.449 1017 265.839 1014.31 263.449 1014.07C261.359 1013.86 260.949 1016.25 260.649 1018.14C260.531 1019.12 260.189 1020.06 259.649 1020.89C258.929 1021.89 259.049 1023.98 257.259 1023.58C255.719 1023.23 255.859 1021.49 255.849 1020.17C255.849 1015.04 255.559 1009.9 255.849 1004.78C256.068 998.688 255.874 992.587 255.269 986.521C254.859 981.821 255.269 978.52 257.729 974.82C259.619 972 259.279 968.431 259.139 965.171C259.039 962.731 257.699 961.781 254.749 961.971C248.804 962.373 242.988 963.896 237.609 966.461C232.609 968.751 228.389 972.9 222.139 972.81C219.269 972.76 217.259 976.53 214.139 977.43C213.209 977.69 213.499 978.681 213.929 979.531C214.929 981.531 213.929 982.831 211.999 983.141C210.069 983.451 208.859 982.321 208.279 980.531C206.669 975.581 204.039 974.211 199.199 975.891C197.899 976.331 196.619 978.101 195.299 976.281C194.409 975.051 195.359 973.841 196.069 972.651C198.309 968.861 196.799 966.541 192.349 966.331C189.439 966.191 187.829 968.041 185.909 969.601C184.609 970.661 183.119 971.55 181.349 970.49C179.579 969.43 180.179 967.74 180.349 966.06C180.909 962.092 182.651 958.384 185.349 955.421C187.158 953.516 188.451 951.183 189.109 948.641C190.109 944.231 189.529 939.23 193.709 935.69C197.009 932.9 199.449 929.3 198.289 924.43C198.179 923.98 198.749 923.111 199.289 922.831C203.199 920.551 203.679 916.381 204.759 912.671C205.308 910.575 206.362 908.645 207.829 907.05C213.589 901.114 218.463 894.378 222.299 887.05C225.359 881.27 230.979 879.57 234.609 883.13C240.708 889.194 247.463 894.56 254.749 899.13C262.509 903.95 270.649 908.07 278.469 912.76C284.189 916.18 290.209 918.841 293.959 924.701C294.704 926.025 295.889 927.048 297.309 927.591C303.689 929.641 308.519 934.59 314.849 936.8C323.409 939.8 330.009 946.28 338.049 950.24C345.789 954.04 353.299 958.381 361.229 961.721C366.379 963.901 370.139 968.081 375.419 969.951C391.239 975.561 405.589 983.951 419.049 993.861C427.299 999.961 433.519 1008.04 440.549 1015.34C444.489 1019.43 449.439 1019.5 453.219 1015.25C455.784 1012.24 458.875 1009.72 462.339 1007.82C463.284 1007.32 464.117 1006.64 464.788 1005.81C465.458 1004.98 465.952 1004.02 466.239 1002.99C467.559 999.081 470.599 996.381 474.239 994.421C476.239 993.311 478.579 992.501 479.819 990.421C482.979 985.091 490.429 983.84 492.239 977.25C492.323 977.107 492.437 976.984 492.574 976.889C492.71 976.794 492.865 976.73 493.029 976.701C500.119 975.431 502.819 969.251 506.749 964.471C509.579 961.041 511.649 955.621 515.179 954.471C522.179 952.131 526.519 945.731 533.729 944.111C536.729 943.421 539.049 940.561 541.829 939.391C547.619 936.951 549.879 931.121 554.519 927.701C557.319 925.641 561.519 924.77 561.299 920C561.299 919.12 562.299 918.671 563.129 918.611C575.359 917.761 583.979 908.301 595.259 905.101C598.989 904.041 598.559 901.831 595.359 900.101C592.689 898.021 591.359 894.461 587.909 893.271C581.119 887.211 575.589 880.06 569.909 873C568.499 871.24 567.469 869.001 565.019 868.341L564.889 868.271C563.229 865.011 561.209 862.06 558.049 860.06C558.07 859.992 558.076 859.92 558.065 859.85C558.055 859.779 558.028 859.712 557.988 859.653C557.947 859.594 557.894 859.546 557.832 859.51C557.77 859.475 557.7 859.455 557.629 859.451C557.629 857.451 555.929 856.321 554.909 854.861C549.909 847.751 545.139 840.54 544.759 831.43C545.989 828.98 545.259 826.931 543.489 825.081L542.829 822.401C543.449 817.691 543.699 813.071 539.909 809.401L539.489 807.69C540.039 806.69 539.939 805.901 538.759 805.451C538.329 803.811 537.909 802.161 537.479 800.521C538.159 800.301 538.649 799.771 538.289 799.171C538.059 798.781 537.289 798.72 536.729 798.51C536.199 797.63 535.669 796.75 535.129 795.88C535.999 794.98 535.759 794.06 535.209 793.13C534.989 791.87 535.209 790.481 534.149 789.471L532.809 786.471C531.869 779.111 527.259 774.041 521.499 770.361C514.613 765.885 508.132 760.816 502.129 755.211C495.359 748.931 487.379 744.211 480.899 737.541C476.899 733.371 471.279 729.19 464.569 729.73C457.569 730.29 453.109 725.41 448.969 721.79C443.679 717.16 438.649 712.64 432.109 709.91C425.419 707.12 418.339 705.03 413.309 699.23C412.519 698.32 411.019 697.951 409.779 697.551C408.349 697.091 405.949 697.91 406.249 695.25C406.489 693.09 408.059 692.141 410.249 692.771C412.739 693.471 413.659 692.22 413.769 690C413.927 688.526 414.294 687.082 414.859 685.711C416.859 679.871 411.499 671.47 405.569 670.28C402.719 669.7 399.879 669.28 397.139 667.62C391.659 664.29 383.209 666.46 379.839 671.62C379.566 672.206 379.081 672.667 378.481 672.91C377.882 673.153 377.213 673.16 376.609 672.931C373.148 672.338 369.918 670.798 367.279 668.48C365.199 666.57 363.159 664.34 360.669 663.23C351.379 659.1 347.869 650.78 345.049 642.13C342.639 634.72 341.549 626.96 340.199 619.28C337.719 605.28 336.599 591.07 338.129 577.04C339.929 560.57 339.719 544.201 338.619 527.811C338.239 522.201 338.459 516.48 337.379 510.94C335.029 498.86 332.129 486.881 330.019 474.751C327.829 462.181 324.339 449.911 322.349 437.281C320.359 424.651 318.049 411.931 318.669 398.941C318.869 394.691 318.739 390.151 317.399 386.191C316.314 383.08 316.35 379.688 317.499 376.6C317.9 375.38 318.139 374.113 318.209 372.831C318.869 363.911 319.049 354.49 321.749 346.34C325.002 336.15 327.256 325.667 328.479 315.041C329.729 305.041 333.839 295.901 335.479 286.041C337.109 276.471 339.749 267.041 341.959 257.611C343.849 249.561 344.269 241.281 345.429 233.131C346.319 226.931 350.009 221.811 350.429 215.601C350.549 213.871 351.829 211.381 354.429 212.141C356.679 212.811 357.099 215.071 356.579 217.141C355.049 223.201 356.459 229.94 352.059 235.37C350.819 236.91 351.589 239.031 351.929 241.071C353.399 250.071 354.469 258.931 349.079 267.471C346.669 271.291 345.939 276.271 345.329 281.801C349.979 279.231 348.669 273.541 353.469 271.971C353.419 274.751 351.469 276.861 352.729 279.441C354.399 283.021 353.259 286.611 351.929 290.071C351.389 291.471 350.529 292.881 350.929 294.381C352.869 301.681 352.479 309.21 353.289 316.62L352.749 323.361C351.749 323.501 350.529 323.89 350.379 324.84C349.279 331.661 345.999 338.301 348.619 345.431L348.269 348.37C346.519 348.81 346.109 350.131 345.789 351.711C344.509 358.171 343.079 364.611 341.789 371.061C341.129 374.311 338.789 376.991 338.789 380.501C338.789 383.701 339.679 387.251 335.589 389.111C334.499 389.611 334.589 391.291 335.179 392.311C338.359 397.821 336.889 404.03 337.529 409.85C338.529 419.23 336.829 428.661 338.529 438.281C340.297 447.801 341.337 457.442 341.639 467.12C341.969 482.23 345.549 496.91 348.639 511.66C351.199 523.87 358.459 533.921 362.779 545.271C364.909 550.871 369.559 554.811 371.579 560.681C372.949 564.681 375.989 569.33 379.449 571.75C385.615 575.852 390.406 581.712 393.199 588.57C393.529 589.4 394.509 590 395.259 590.57C399.099 593.75 403.919 593.85 408.459 594.22C412.789 594.56 415.169 591.22 414.249 586.88C412.629 579.28 413.079 571.741 414.419 564.151C416.359 553.151 417.539 542.24 416.069 531C415.069 523.58 412.429 516.611 411.639 509.141C410.639 499.911 410.389 490.621 409.109 481.391C408.259 475.261 407.469 468.81 409.609 462.62C411.429 457.33 415.509 455.741 420.099 458.921C424.879 462.231 429.729 465.741 433.189 470.401C438.631 477.801 445.949 483.614 454.389 487.241C456.339 488.139 458.031 489.515 459.309 491.241C465.109 498.481 474.309 501.72 481.409 498.63C492.689 493.68 504.809 491.82 516.549 488.63C518.333 488.149 520.199 488.055 522.023 488.355C523.846 488.656 525.584 489.343 527.119 490.371C528.815 491.435 530.694 492.177 532.659 492.561C540.329 494.141 544.819 499.02 546.659 506.47C547.059 508.11 547.659 508.471 549.399 509.061C554.829 510.931 560.529 508.371 566.309 512.561C571.629 516.411 579.869 516.491 586.999 516.021C589.789 515.841 593.449 516.511 595.499 514.091C598.859 510.091 603.749 510.221 607.419 510.841C614.189 511.991 618.639 508.84 623.139 505.22C633.599 496.7 641.079 485.22 651.349 476.44C653.479 474.62 656.079 471.791 656.439 468.241L656.539 468.16C659.539 467.78 661.159 465.691 662.379 463.161L666.549 458.161C669.869 457.661 671.549 455.35 672.819 452.54L676.569 450.191C677.829 450.341 678.719 449.481 679.779 449.061C684.929 447.061 691.549 448.64 693.499 452.59C695.239 456.12 696.499 459.891 697.999 463.531C699.749 467.821 698.349 472.791 701.409 476.611L701.619 480.391C700.619 481.581 701.339 482.161 702.399 482.621L702.609 484.371C702.226 484.815 701.956 485.345 701.82 485.916C701.684 486.486 701.687 487.081 701.829 487.651C704.319 503.891 702.439 520.011 701.039 536.211C700.479 542.711 698.859 549.4 700.739 555.98C703.739 566.28 702.319 576.761 702.509 587.211C702.629 593.811 701.279 600.731 705.139 607.211C706.002 608.654 706.552 610.262 706.754 611.931C706.955 613.6 706.804 615.293 706.309 616.9C704.639 622.094 704.577 627.671 706.129 632.9C708.329 640.96 707.789 649.28 706.019 656.9C702.919 670.37 700.679 684.001 698.269 697.551C696.969 704.831 693.709 710.45 689.909 716.09C685.909 721.97 682.199 727.5 684.129 735.31C684.799 738.06 684.609 741.901 680.609 743.521C679.439 743.991 678.839 745.37 678.609 746.81C678.029 750.58 676.729 754.351 676.829 758.091C676.919 761.281 673.909 764.621 675.679 766.911C678.459 770.491 678.759 774.181 678.589 778.151C678.309 784.871 682.359 789.591 686.009 794.391C687.719 796.651 690.659 797.391 693.109 795.281C695.559 793.171 698.669 793.03 701.519 792.62C704.679 792.17 707.399 793.24 706.079 797.44C705.219 800.16 706.699 801.07 708.769 802.44C712.239 804.7 716.239 806.44 718.039 810.82C718.869 812.82 721.039 815.57 723.439 813.82C729.079 809.56 729.769 813.98 731.189 817.56C731.778 818.75 732.221 820.005 732.509 821.3C732.849 823.83 733.629 824.821 735.869 822.791C737.039 821.741 738.169 821.551 739.349 822.791C740.529 824.031 740.529 825.261 739.729 826.791C737.009 832.111 735.729 840.11 734.859 846.12C733.439 855.62 739.539 861.901 743.789 868.851C746.539 873.341 750.279 877.221 751.789 882.451C752.789 885.991 754.439 887.681 758.619 886.101C763.549 884.251 768.539 883.99 773.099 887.94C775.949 890.42 780.039 890.271 783.179 889.161C794.179 885.291 801.449 892.291 808.629 897.951C814.259 902.391 819.519 907.061 826.309 909.601L826.509 909.771C827.509 912.121 829.699 911.321 831.509 911.601L834.599 913.521C834.829 915.741 836.729 916.78 837.959 918.32C842.469 923.95 847.899 928.981 850.259 936.081C851.669 940.331 853.259 944.361 856.149 947.961C859.969 952.671 864.949 956.7 866.259 963.13C866.399 963.82 867.259 964.471 867.939 964.921C875.669 970.041 879.639 977.701 882.809 986.091C886.649 996.231 892.579 1005.01 903.569 1008.09C911.829 1010.38 916.379 1016.66 921.689 1022.17C925.229 1025.84 928.309 1030.17 929.529 1035.28C932.019 1045.61 938.229 1052.13 948.589 1054.28C952.169 1055.03 955.449 1058.85 958.879 1057.12C963.959 1054.56 967.699 1056.41 971.879 1058.7C973.101 1059.21 974.417 1059.44 975.739 1059.4C983.919 1059.81 995.949 1069.4 997.619 1077.48C998.919 1083.83 1001.62 1089.71 1002.94 1096.08C1004.79 1105.08 1011.52 1112.08 1014.69 1120.68C1015.56 1123.05 1014.88 1126.01 1017.45 1127.91C1021.51 1130.91 1023.07 1135.16 1022.76 1140.19C1022.55 1143.66 1024.12 1145.59 1027.67 1146.54C1032.19 1147.75 1035.78 1150.42 1036.75 1155.44C1036.87 1156.27 1037.18 1157.07 1037.66 1157.76C1038.13 1158.45 1038.76 1159.03 1039.5 1159.44C1042.94 1161.18 1043.89 1164.15 1044.34 1167.58C1044.66 1170.47 1045.15 1173.47 1045.66 1176.38Z" fill="black"/>
<ellipse cx="439" cy="329.5" rx="83" ry="82.5" fill="black"/>
<ellipse cx="667" cy="329.5" rx="83" ry="82.5" fill="black"/>
<path d="M516.387 642.206C504.247 642.686 496.177 633.206 497.067 622.326C497.707 614.516 504.317 609.536 511.837 611.386C514.687 612.086 513.247 613.526 512.177 614.486C509.457 616.896 508.887 620.216 508.177 623.486C507.117 628.596 509.177 632.666 513.677 635.156C517.437 637.226 523.537 633.826 523.467 629.156C523.407 625.056 525.117 620.956 523.467 616.846C523.333 616.578 523.256 616.284 523.24 615.984C523.224 615.684 523.27 615.384 523.375 615.103C523.48 614.822 523.642 614.565 523.85 614.349C524.059 614.133 524.31 613.962 524.587 613.846C525.847 613.226 526.817 613.846 527.587 614.846C527.953 615.4 528.358 615.928 528.797 616.426C535.507 622.916 536.097 625.236 532.907 632.806C530.597 638.306 524.257 642.276 517.817 642.256L516.387 642.206Z" fill="#3CEC00"/>
<path d="M621.012 643.95C632.902 644.426 640.806 635.024 639.934 624.233C639.308 616.488 632.834 611.548 625.469 613.383C622.677 614.077 624.088 615.506 625.135 616.458C627.799 618.848 628.358 622.141 629.053 625.384C630.091 630.452 628.074 634.489 623.666 636.958C619.984 639.011 614.009 635.639 614.078 631.007C614.137 626.941 612.462 622.875 614.078 618.798C614.209 618.532 614.285 618.241 614.3 617.943C614.316 617.646 614.271 617.348 614.168 617.069C614.065 616.79 613.907 616.536 613.702 616.321C613.498 616.107 613.253 615.937 612.981 615.823C611.747 615.208 610.797 615.823 610.043 616.815C609.684 617.364 609.288 617.888 608.858 618.382C602.286 624.819 601.708 627.12 604.832 634.627C607.095 640.082 613.304 644.02 619.612 644L621.012 643.95Z" fill="#3CEC00"/>
<path d="M594.5 319.5C561.7 296.3 523.833 309.833 509 319.5H462.5C461.833 339.5 470.2 371 509 337C547.8 303 582.167 322.833 594.5 337C608.167 340.833 627.3 342.7 594.5 319.5Z" fill="black" stroke="black"/>
</svg>
