<svg width="121" height="118" viewBox="0 0 121 118" fill="none" xmlns="http://www.w3.org/2000/svg">
<path fill-rule="evenodd" clip-rule="evenodd" d="M60.39 0C27.04 0 0 27.04 0 60.39C0 87.07 17.3 109.71 41.3 117.69C44.32 118.25 45.43 116.38 45.43 114.78C45.43 113.34 45.37 108.58 45.35 103.54C28.54 107.19 25 96.42 25 96.42C22.25 89.44 18.3 87.58 18.3 87.58C12.82 83.83 18.71 83.91 18.71 83.91C24.77 84.34 27.97 90.13 27.97 90.13C33.36 99.36 42.1 96.69 45.54 95.15C46.08 91.25 47.65 88.58 49.37 87.07C35.96 85.54 21.86 80.36 21.86 57.23C21.86 50.64 24.22 45.25 28.08 41.02C27.45 39.5 25.39 33.36 28.66 25.04C28.66 25.04 33.73 23.42 45.27 31.23C50.09 29.89 55.25 29.22 60.39 29.2C65.52 29.22 70.69 29.89 75.52 31.23C87.05 23.42 92.11 25.04 92.11 25.04C95.4 33.36 93.33 39.5 92.7 41.02C96.57 45.25 98.91 50.64 98.91 57.23C98.91 80.42 84.78 85.53 71.34 87.03C73.51 88.9 75.44 92.58 75.44 98.21C75.44 106.29 75.37 112.79 75.37 114.78C75.37 116.39 76.46 118.27 79.52 117.68C103.5 109.69 120.78 87.06 120.78 60.39C120.78 27.04 93.74 0 60.39 0Z" fill="#191717"/>
<path d="M22.87 86.6999C22.74 86.9999 22.26 87.0899 21.83 86.8799C21.39 86.6799 21.15 86.2699 21.29 85.9699C21.42 85.6599 21.89 85.5799 22.33 85.7799C22.77 85.9899 23.02 86.3999 22.87 86.6999Z" fill="#191717"/>
<path d="M25.32 89.43C25.03 89.7 24.47 89.57 24.09 89.15C23.69 88.73 23.62 88.17 23.91 87.9C24.21 87.63 24.75 87.76 25.15 88.18C25.54 88.6 25.62 89.16 25.32 89.43Z" fill="#191717"/>
<path d="M27.7 92.9099C27.33 93.1699 26.72 92.9299 26.35 92.3899C25.98 91.8499 25.98 91.2099 26.36 90.9499C26.73 90.6899 27.33 90.9199 27.71 91.4599C28.08 91.9999 28.08 92.6499 27.7 92.9099Z" fill="#191717"/>
<path d="M30.96 96.27C30.63 96.64 29.92 96.54 29.41 96.04C28.88 95.55 28.74 94.86 29.07 94.5C29.41 94.13 30.11 94.24 30.63 94.73C31.15 95.21 31.31 95.91 30.96 96.27Z" fill="#191717"/>
<path d="M35.46 98.22C35.31 98.69 34.63 98.91 33.95 98.71C33.27 98.5 32.82 97.95 32.96 97.47C33.1 96.99 33.78 96.77 34.47 96.98C35.16 97.19 35.6 97.74 35.46 98.22Z" fill="#191717"/>
<path d="M40.4001 98.5799C40.4201 99.0799 39.8401 99.4899 39.1201 99.4999C38.4001 99.5199 37.8101 99.1099 37.8101 98.6199C37.8101 98.1199 38.3801 97.7099 39.1001 97.6999C39.8101 97.6899 40.4001 98.0899 40.4001 98.5799Z" fill="#191717"/>
<path d="M45 97.8C45.09 98.29 44.59 98.78 43.87 98.92C43.17 99.05 42.52 98.75 42.43 98.27C42.34 97.77 42.85 97.27 43.55 97.14C44.27 97.01 44.91 97.31 45 97.8Z" fill="#191717"/>
</svg>
