<svg width="431" height="362" viewBox="0 0 431 362" fill="none" xmlns="http://www.w3.org/2000/svg">
<path d="M430.117 252.543V411.56H337.929V263.193C337.929 225.922 324.595 200.486 291.226 200.486C265.753 200.486 250.594 217.628 243.925 234.21C241.493 240.138 240.867 248.389 240.867 256.687V411.56H148.648C148.648 411.56 149.89 160.275 148.648 134.24H240.858V173.549C240.671 173.843 240.428 174.16 240.252 174.445H240.858V173.549C253.109 154.68 274.988 127.725 323.96 127.725C384.633 127.724 430.117 167.361 430.117 252.543ZM52.183 0.557999C20.635 0.557999 0 21.251 0 48.463C0 75.082 20.038 96.403 50.959 96.403H51.575C83.734 96.403 103.734 75.086 103.734 48.463C103.128 21.251 83.734 0.557999 52.183 0.557999ZM5.477 411.56H97.661V134.24H5.477V411.56Z" fill="black"/>
</svg>
